<svg width="24" height="21" viewBox="0 0 24 21" fill="none" xmlns="http://www.w3.org/2000/svg">
<path d="M6 19.25C5.45 19.25 4.97917 19.0786 4.5875 18.7359C4.19583 18.3932 4 17.9812 4 17.5V8.75C4 8.26875 4.19583 7.85677 4.5875 7.51406C4.97917 7.17135 5.45 7 6 7H7V5.25C7 4.03958 7.4875 3.00781 8.4625 2.15469C9.4375 1.30156 10.6167 0.875 12 0.875C13.3833 0.875 14.5625 1.30156 15.5375 2.15469C16.5125 3.00781 17 4.03958 17 5.25V7H18C18.55 7 19.0208 7.17135 19.4125 7.51406C19.8042 7.85677 20 8.26875 20 8.75V17.5C20 17.9812 19.8042 18.3932 19.4125 18.7359C19.0208 19.0786 18.55 19.25 18 19.25H6ZM6 17.5H18V8.75H6V17.5ZM12 14.875C12.55 14.875 13.0208 14.7036 13.4125 14.3609C13.8042 14.0182 14 13.6062 14 13.125C14 12.6437 13.8042 12.2318 13.4125 11.8891C13.0208 11.5464 12.55 11.375 12 11.375C11.45 11.375 10.9792 11.5464 10.5875 11.8891C10.1958 12.2318 10 12.6437 10 13.125C10 13.6062 10.1958 14.0182 10.5875 14.3609C10.9792 14.7036 11.45 14.875 12 14.875ZM9 7H15V5.25C15 4.52083 14.7083 3.90104 14.125 3.39062C13.5417 2.88021 12.8333 2.625 12 2.625C11.1667 2.625 10.4583 2.88021 9.875 3.39062C9.29167 3.90104 9 4.52083 9 5.25V7Z" fill="#666666"/>
</svg>
