<svg width="35" height="35" viewBox="0 0 35 35" fill="none" xmlns="http://www.w3.org/2000/svg">
<path d="M17.5 30.6252L15.3854 28.7293C12.9306 26.5175 10.9011 24.6095 9.2969 23.0054C7.69273 21.4012 6.41669 19.9611 5.46877 18.6851C4.52085 17.409 3.85853 16.2363 3.48179 15.1668C3.10506 14.0974 2.91669 13.0036 2.91669 11.8856C2.91669 9.60086 3.68231 7.69287 5.21356 6.16162C6.74481 4.63037 8.6528 3.86475 10.9375 3.86475C12.2014 3.86475 13.4045 4.13211 14.5469 4.66683C15.6893 5.20155 16.6736 5.95502 17.5 6.92725C18.3264 5.95502 19.3108 5.20155 20.4531 4.66683C21.5955 4.13211 22.7986 3.86475 24.0625 3.86475C26.3472 3.86475 28.2552 4.63037 29.7865 6.16162C31.3177 7.69287 32.0834 9.60086 32.0834 11.8856C32.0834 13.0036 31.895 14.0974 31.5182 15.1668C31.1415 16.2363 30.4792 17.409 29.5313 18.6851C28.5834 19.9611 27.3073 21.4012 25.7031 23.0054C24.099 24.6095 22.0695 26.5175 19.6146 28.7293L17.5 30.6252ZM17.5 26.6877C19.8334 24.5974 21.7535 22.8049 23.2604 21.3101C24.7674 19.8153 25.9584 18.5149 26.8334 17.409C27.7084 16.3031 28.316 15.3187 28.6563 14.4559C28.9965 13.593 29.1667 12.7363 29.1667 11.8856C29.1667 10.4272 28.6806 9.21197 27.7084 8.23975C26.7361 7.26752 25.5209 6.78141 24.0625 6.78141C22.9202 6.78141 21.8629 7.10346 20.8906 7.74756C19.9184 8.39166 19.25 9.21197 18.8854 10.2085H16.1146C15.75 9.21197 15.0816 8.39166 14.1094 7.74756C13.1372 7.10346 12.0799 6.78141 10.9375 6.78141C9.47919 6.78141 8.26391 7.26752 7.29169 8.23975C6.31946 9.21197 5.83335 10.4272 5.83335 11.8856C5.83335 12.7363 6.00349 13.593 6.34377 14.4559C6.68405 15.3187 7.29169 16.3031 8.16669 17.409C9.04169 18.5149 10.2327 19.8153 11.7396 21.3101C13.2465 22.8049 15.1667 24.5974 17.5 26.6877Z" fill="#666666"/>
</svg>
